# xmcd
#
# Track frame offsets:
#	150
#	10949
#	25022
#	38459
#	52521
#	63846
#	75796
#	88994
#	99873
#	114318
#	127537
#	139607
#	148788
#	162049
#	174129
#	187554
#	202351
#	214706
#	227706
#	240335
#
# Disc length: 3337 seconds
#
# Revision: 1
# Processed by: cddbd v1.5.2PL0 Copyright (c) Steve Scherf et al.
# Submitted via: audiograbber 1.83.01
#
DISCID=dd0d0714
DTITLE=Various Artist - country music golden oldies essentials cd2
DYEAR=2000
DGENRE=Country
TTITLE0=faron young - if you ain't lovin', you ain't livin'
TTITLE1=roy rogers - pecos bill
TTITLE2=hank williams - hey, good lookin'
TTITLE3=tennessee ernie ford - mule train
TTITLE4=tex ritter - high noon
TTITLE5=merle travis - cincinnati lou
TTITLE6=roy acuff - mule skinner blues (blue yodel no 8)
TTITLE7=porter wagoner - uncle pen
TTITLE8=carter family - answer to sleeping willow
TTITLE9=tex williams and his western caravan - smoke, smoke, smoke that cigarette
TTITLE9=!
TTITLE10=gene autry - blueberry hill
TTITLE11=hank snow - hula rock
TTITLE12=jimmy wakely - my heart cries for you
TTITLE13=roy rogers - san fernando valley
TTITLE14=bob wills and his texas playboys - texas playboy rag
TTITLE15=tennessee ernie ford - the cry of the wild goose
TTITLE16=tex ritter - rock and rye
TTITLE17=slim whitman - stairway to heaven
TTITLE18=elton britt - there' a star spangled banner waving somewhere
TTITLE19=hank williams - honky tonk blues
EXTD=
EXTT0=
EXTT1=
EXTT2=
EXTT3=
EXTT4=
EXTT5=
EXTT6=
EXTT7=
EXTT8=
EXTT9=
EXTT10=
EXTT11=
EXTT12=
EXTT13=
EXTT14=
EXTT15=
EXTT16=
EXTT17=
EXTT18=
EXTT19=
PLAYORDER=
